<svg width="35" height="48" viewBox="0 0 35 48" fill="none" xmlns="http://www.w3.org/2000/svg">
<path d="M17.3838 0C7.79832 0 -1.83106e-07 7.79832 -1.83106e-07 17.3837C-1.83106e-07 29.2795 15.5568 46.7431 16.2191 47.4808C16.8413 48.1737 17.9275 48.1725 18.5485 47.4808C19.2108 46.7431 34.7676 29.2795 34.7676 17.3837C34.7674 7.79832 26.9692 0 17.3838 0ZM17.3838 26.1299C12.5611 26.1299 8.63766 22.2064 8.63766 17.3837C8.63766 12.561 12.5612 8.63757 17.3838 8.63757C22.2064 8.63757 26.1298 12.5611 26.1298 17.3838C26.1298 22.2065 22.2064 26.1299 17.3838 26.1299Z" fill="black"/>
</svg>
