<svg width="49" height="48" viewBox="0 0 49 48" fill="none" xmlns="http://www.w3.org/2000/svg">
<path d="M47.0303 37.9657L39.6006 30.5352C38.1208 29.0613 35.6701 29.1061 34.1387 30.638L30.3956 34.3803C30.1591 34.25 29.9143 34.1138 29.657 33.9694C27.2933 32.6597 24.0581 30.8646 20.6538 27.4578C17.2394 24.0438 15.4426 20.8036 14.1289 18.4384C13.9903 18.1878 13.8574 17.9462 13.7263 17.7168L16.2384 15.2083L17.4735 13.9717C19.0073 12.4376 19.0496 9.98761 17.5732 8.50943L10.1435 1.07812C8.66712 -0.397997 6.21535 -0.353216 4.6816 1.18095L2.58767 3.2869L2.64489 3.34371C1.94277 4.23961 1.35606 5.27289 0.919442 6.38716C0.516965 7.44781 0.266385 8.45994 0.151806 9.47415C-0.829231 17.6072 2.88732 25.0401 12.9736 35.1265C26.9158 49.0678 38.1514 48.0146 38.6362 47.9632C39.6918 47.837 40.7035 47.5848 41.7317 47.1855C42.8363 46.754 43.8689 46.1681 44.7642 45.4675L44.81 45.5081L46.9313 43.4309C48.4619 41.897 48.506 39.4462 47.0303 37.9657Z" fill="black"/>
</svg>
