<svg width="36" height="36" viewBox="0 0 36 36" fill="none" xmlns="http://www.w3.org/2000/svg">
<path d="M24.75 0H11.25C5.03775 0 0 5.03775 0 11.25V24.75C0 30.9622 5.03775 36 11.25 36H24.75C30.9622 36 36 30.9622 36 24.75V11.25C36 5.03775 30.9622 0 24.75 0ZM32.625 24.75C32.625 29.0925 29.0925 32.625 24.75 32.625H11.25C6.9075 32.625 3.375 29.0925 3.375 24.75V11.25C3.375 6.9075 6.9075 3.375 11.25 3.375H24.75C29.0925 3.375 32.625 6.9075 32.625 11.25V24.75Z" fill="black"/>
<path d="M9 0C4.02975 0 0 4.02975 0 9C0 13.9703 4.02975 18 9 18C13.9703 18 18 13.9703 18 9C18 4.02975 13.9703 0 9 0ZM9 14.625C5.8995 14.625 3.375 12.1005 3.375 9C3.375 5.89725 5.8995 3.375 9 3.375C12.1005 3.375 14.625 5.89725 14.625 9C14.625 12.1005 12.1005 14.625 9 14.625Z" transform="translate(9 9)" fill="black"/>
<path d="M1.19925 2.3985C1.86158 2.3985 2.3985 1.86158 2.3985 1.19925C2.3985 0.536923 1.86158 0 1.19925 0C0.536923 0 0 0.536923 0 1.19925C0 1.86158 0.536923 2.3985 1.19925 2.3985Z" transform="translate(26.4758 7.12575)" fill="black"/>
</svg>
