<svg width="36" height="21" viewBox="0 0 36 21" fill="none" xmlns="http://www.w3.org/2000/svg">
<path d="M35.8091 18.5495C35.7655 18.4555 35.7248 18.3776 35.6871 18.3152C35.0625 17.1903 33.8689 15.8095 32.1071 14.1725L32.0698 14.135L32.0512 14.1166L32.0323 14.0978H32.0134C31.2138 13.3355 30.7074 12.823 30.4954 12.5606C30.1074 12.0607 30.0205 11.5548 30.2325 11.0421C30.3823 10.6548 30.9451 9.83677 31.9195 8.58698C32.432 7.92463 32.8379 7.39379 33.1377 6.99384C35.2996 4.11967 36.2369 2.28303 35.9494 1.48321L35.8377 1.29631C35.7627 1.18378 35.569 1.08084 35.257 0.986963C34.9442 0.89328 34.5445 0.877787 34.057 0.940221L28.659 0.97751C28.5715 0.946523 28.4466 0.949411 28.284 0.986963C28.1215 1.02452 28.0402 1.04336 28.0402 1.04336L27.9463 1.0903L27.8717 1.14669C27.8092 1.18398 27.7404 1.24957 27.6654 1.34331C27.5908 1.43673 27.5283 1.54637 27.4784 1.6713C26.8907 3.1833 26.2225 4.58907 25.4726 5.88855C25.0102 6.66343 24.5856 7.33496 24.1978 7.90356C23.8105 8.47196 23.4856 8.89075 23.2234 9.15919C22.9608 9.4279 22.7238 9.64316 22.511 9.80578C22.2985 9.96846 22.1363 10.0372 22.0239 10.0121C21.9113 9.98691 21.8053 9.96196 21.7049 9.93702C21.5301 9.82449 21.3895 9.67146 21.2835 9.47779C21.177 9.28412 21.1053 9.04036 21.0678 8.74671C21.0305 8.45286 21.0085 8.2001 21.0022 7.98759C20.9963 7.77535 20.999 7.47513 21.0117 7.08779C21.0247 6.70025 21.0305 6.43805 21.0305 6.30058C21.0305 5.82566 21.0398 5.31024 21.0584 4.75418C21.0773 4.19812 21.0926 3.75754 21.1054 3.43297C21.1181 3.10806 21.124 2.76432 21.124 2.40193C21.124 2.03954 21.1019 1.75534 21.0584 1.54906C21.0153 1.34305 20.9492 1.14308 20.8621 0.949215C20.7744 0.755546 20.6461 0.605732 20.4778 0.499378C20.3091 0.393156 20.0995 0.30886 19.8499 0.24623C19.1876 0.0963501 18.3442 0.0152719 17.3193 0.00266706C14.9952 -0.0222801 13.5019 0.127796 12.8396 0.4527C12.5772 0.589975 12.3397 0.777538 12.1274 1.0148C11.9024 1.28981 11.871 1.43989 12.0335 1.46457C12.7833 1.5769 13.3142 1.84561 13.6266 2.27043L13.7392 2.49554C13.8268 2.65796 13.9142 2.94551 14.0017 3.3578C14.0891 3.77008 14.1455 4.22615 14.1703 4.72575C14.2327 5.6381 14.2327 6.41908 14.1703 7.06875C14.1077 7.71869 14.0487 8.22466 13.9923 8.58705C13.9359 8.94944 13.8516 9.24309 13.7392 9.46794C13.6266 9.69286 13.5517 9.83033 13.5141 9.88023C13.4766 9.93012 13.4454 9.96157 13.4206 9.97391C13.2582 10.0361 13.0892 10.0679 12.9144 10.0679C12.7393 10.0679 12.527 9.98028 12.2771 9.80526C12.0273 9.63023 11.7681 9.38982 11.4994 9.08363C11.2307 8.77737 10.9276 8.34939 10.5901 7.79964C10.2529 7.24988 9.90297 6.60014 9.54058 5.85041L9.24075 5.30669C9.05332 4.95691 8.79728 4.44759 8.47238 3.77921C8.14728 3.11056 7.85993 2.46377 7.61013 1.83897C7.51027 1.57657 7.36026 1.3768 7.16036 1.23932L7.06654 1.18293C7.00418 1.13304 6.90406 1.08006 6.76672 1.0236C6.62918 0.967202 6.48567 0.926762 6.33559 0.90188L1.19983 0.93917C0.675017 0.93917 0.31893 1.05806 0.131432 1.29552L0.0563937 1.40785C0.0189073 1.47041 0 1.57033 0 1.70787C0 1.84534 0.0374864 2.01406 0.112525 2.21384C0.862252 3.97589 1.67756 5.67526 2.55846 7.31218C3.43936 8.94911 4.20484 10.2677 4.85445 11.2668C5.5042 12.2666 6.16648 13.2101 6.8413 14.0971C7.51612 14.9844 7.9628 15.5529 8.18135 15.8027C8.40017 16.053 8.57204 16.2401 8.69697 16.365L9.16565 16.8148C9.46554 17.1148 9.90592 17.474 10.487 17.8925C11.0682 18.3113 11.7116 18.7236 12.4176 19.13C13.1238 19.5358 13.9453 19.867 14.8826 20.1231C15.8197 20.3794 16.7319 20.4823 17.6191 20.4327H19.7747C20.2119 20.3949 20.5431 20.2575 20.7682 20.0202L20.8428 19.9263C20.8929 19.8517 20.9399 19.7358 20.9832 19.5799C21.027 19.4237 21.0488 19.2516 21.0488 19.0645C21.036 18.5272 21.0769 18.0431 21.1704 17.612C21.2638 17.1811 21.3703 16.8562 21.4894 16.6374C21.6084 16.4187 21.7428 16.2343 21.8922 16.0847C22.0421 15.9348 22.1488 15.844 22.2114 15.8128C22.2737 15.7813 22.3234 15.76 22.3609 15.7472C22.6607 15.6473 23.0137 15.7441 23.4202 16.038C23.8264 16.3316 24.2073 16.6942 24.5637 17.1251C24.9198 17.5565 25.3477 18.0404 25.8475 18.5776C26.3475 19.115 26.7848 19.5145 27.1595 19.7773L27.5342 20.0022C27.7845 20.1523 28.1094 20.2898 28.5093 20.4147C28.9086 20.5396 29.2583 20.5708 29.5587 20.5084L34.3569 20.4335C34.8315 20.4335 35.2008 20.3549 35.4627 20.199C35.7252 20.0428 35.8811 19.8708 35.9314 19.6836C35.9815 19.4962 35.9842 19.2837 35.9409 19.046C35.8965 18.8089 35.8527 18.6432 35.8091 18.5495Z" fill="black"/>
</svg>
